<svg width="14" height="19" viewBox="0 0 14 19" fill="none" xmlns="http://www.w3.org/2000/svg">
<path d="M6.88109 3.05176e-05C3.08684 3.05176e-05 0 3.08687 0 6.88108C0 11.5898 6.1579 18.5025 6.42008 18.7945C6.66634 19.0688 7.09629 19.0683 7.3421 18.7945C7.60428 18.5025 13.7622 11.5898 13.7622 6.88108C13.7621 3.08687 10.6753 3.05176e-05 6.88109 3.05176e-05ZM6.88109 10.3431C4.97211 10.3431 3.41908 8.79006 3.41908 6.88108C3.41908 4.9721 4.97214 3.41907 6.88109 3.41907C8.79003 3.41907 10.3431 4.97214 10.3431 6.88112C10.3431 8.7901 8.79003 10.3431 6.88109 10.3431Z" fill="#993333"/>
</svg>
