<svg width="30" height="37" viewBox="0 0 30 37" fill="none" xmlns="http://www.w3.org/2000/svg">
<path d="M14.7261 18.0664C19.0792 18.0664 22.6207 14.5249 22.6207 10.1718V7.89456C22.6207 3.5415 19.0792 0 14.7261 0C10.3731 0 6.83157 3.5415 6.83157 7.89456V10.1717C6.83157 14.5249 10.3731 18.0664 14.7261 18.0664ZM25.9214 22.5556C25.8541 22.519 25.7862 22.4835 25.7177 22.4493L21.2868 20.2337C20.8132 27.1757 15.6937 30.7299 13.5161 31.8186L4.58594 36.2838H12.1887C19.7594 36.2838 25.919 30.1258 25.9214 22.5556Z" fill="#993333"/>
<path d="M27.9575 24.2456C27.578 27.8409 25.9947 31.1726 23.4024 33.7648C22.4115 34.7557 21.312 35.5983 20.1316 36.2837H28.3892C28.9763 36.2837 29.4522 35.8078 29.4522 35.2207V28.4918C29.4522 26.9078 28.9102 25.4227 27.9575 24.2456ZM19.196 19.1885C19.196 19.1711 19.1978 19.1541 19.1987 19.1368C17.8516 19.8116 16.3325 20.1923 14.7261 20.1923C13.1172 20.1923 11.5959 19.8105 10.2473 19.1338V19.1928L3.73468 22.4491C1.43101 23.6009 0 25.9163 0 28.4918V35.2207C0 35.5293 0.134151 35.819 0.361775 36.0189L12.5654 29.917C18.3646 27.0174 19.196 21.3582 19.196 19.1885Z" fill="#993333"/>
</svg>
