<svg width="20" height="20" viewBox="0 0 20 20" fill="none" xmlns="http://www.w3.org/2000/svg">
<path d="M5.23826 0.952381C5.23826 0.426395 4.81186 0 4.28588 0C3.75989 0 3.3335 0.426395 3.3335 0.952381V1.90476C3.3335 2.43075 3.75989 2.85714 4.28588 2.85714C4.81186 2.85714 5.23826 2.43075 5.23826 1.90476V0.952381Z" fill="#993333"/>
<path d="M15.7143 0.952381C15.7143 0.426395 15.2879 0 14.762 0C14.236 0 13.8096 0.426395 13.8096 0.952381V1.90476C13.8096 2.43075 14.236 2.85714 14.762 2.85714C15.2879 2.85714 15.7143 2.43075 15.7143 1.90476V0.952381Z" fill="#993333"/>
<path d="M0 7.14287V18.0953C0 18.6004 0.20068 19.0849 0.557892 19.4421C0.915104 19.7993 1.39959 20 1.90476 20H17.1429C17.648 20 18.1325 19.7993 18.4897 19.4421C18.8469 19.0849 19.0476 18.6004 19.0476 18.0953V7.14287H0ZM5.71429 16.6667C5.71429 16.9193 5.61395 17.1615 5.43534 17.3401C5.25673 17.5187 5.01449 17.6191 4.76191 17.6191H3.80952C3.55694 17.6191 3.3147 17.5187 3.13609 17.3401C2.95748 17.1615 2.85714 16.9193 2.85714 16.6667V15.7143C2.85714 15.4617 2.95748 15.2195 3.13609 15.0409C3.3147 14.8623 3.55694 14.7619 3.80952 14.7619H4.76191C5.01449 14.7619 5.25673 14.8623 5.43534 15.0409C5.61395 15.2195 5.71429 15.4617 5.71429 15.7143V16.6667ZM5.71429 11.4286C5.71429 11.6812 5.61395 11.9234 5.43534 12.102C5.25673 12.2806 5.01449 12.381 4.76191 12.381H3.80952C3.55694 12.381 3.3147 12.2806 3.13609 12.102C2.95748 11.9234 2.85714 11.6812 2.85714 11.4286V10.4762C2.85714 10.2236 2.95748 9.98138 3.13609 9.80277C3.3147 9.62417 3.55694 9.52383 3.80952 9.52383H4.76191C5.01449 9.52383 5.25673 9.62417 5.43534 9.80277C5.61395 9.98138 5.71429 10.2236 5.71429 10.4762V11.4286ZM10.9524 16.6667C10.9524 16.9193 10.852 17.1615 10.6734 17.3401C10.4948 17.5187 10.2526 17.6191 10 17.6191H9.04762C8.79503 17.6191 8.55279 17.5187 8.37418 17.3401C8.19558 17.1615 8.09524 16.9193 8.09524 16.6667V15.7143C8.09524 15.4617 8.19558 15.2195 8.37418 15.0409C8.55279 14.8623 8.79503 14.7619 9.04762 14.7619H10C10.2526 14.7619 10.4948 14.8623 10.6734 15.0409C10.852 15.2195 10.9524 15.4617 10.9524 15.7143V16.6667ZM10.9524 11.4286C10.9524 11.6812 10.852 11.9234 10.6734 12.102C10.4948 12.2806 10.2526 12.381 10 12.381H9.04762C8.79503 12.381 8.55279 12.2806 8.37418 12.102C8.19558 11.9234 8.09524 11.6812 8.09524 11.4286V10.4762C8.09524 10.2236 8.19558 9.98138 8.37418 9.80277C8.55279 9.62417 8.79503 9.52383 9.04762 9.52383H10C10.2526 9.52383 10.4948 9.62417 10.6734 9.80277C10.852 9.98138 10.9524 10.2236 10.9524 10.4762V11.4286ZM16.1905 16.6667C16.1905 16.9193 16.0901 17.1615 15.9115 17.3401C15.7329 17.5187 15.4907 17.6191 15.2381 17.6191H14.2857C14.0331 17.6191 13.7909 17.5187 13.6123 17.3401C13.4337 17.1615 13.3333 16.9193 13.3333 16.6667V15.7143C13.3333 15.4617 13.4337 15.2195 13.6123 15.0409C13.7909 14.8623 14.0331 14.7619 14.2857 14.7619H15.2381C15.4907 14.7619 15.7329 14.8623 15.9115 15.0409C16.0901 15.2195 16.1905 15.4617 16.1905 15.7143V16.6667ZM16.1905 11.4286C16.1905 11.6812 16.0901 11.9234 15.9115 12.102C15.7329 12.2806 15.4907 12.381 15.2381 12.381H14.2857C14.0331 12.381 13.7909 12.2806 13.6123 12.102C13.4337 11.9234 13.3333 11.6812 13.3333 11.4286V10.4762C13.3333 10.2236 13.4337 9.98138 13.6123 9.80277C13.7909 9.62417 14.0331 9.52383 14.2857 9.52383H15.2381C15.4907 9.52383 15.7329 9.62417 15.9115 9.80277C16.0901 9.98138 16.1905 10.2236 16.1905 10.4762V11.4286ZM19.0476 6.19049V3.33335C19.0476 2.82818 18.8469 2.34369 18.4897 1.98648C18.1325 1.62927 17.648 1.42859 17.1429 1.42859H16.6667V1.90478C16.6667 2.95526 15.8124 3.80954 14.7619 3.80954C13.7114 3.80954 12.8571 2.95526 12.8571 1.90478V1.42859H6.19048V1.90478C6.19048 2.95526 5.33619 3.80954 4.28571 3.80954C3.23524 3.80954 2.38095 2.95526 2.38095 1.90478V1.42859H1.90476C1.39959 1.42859 0.915104 1.62927 0.557892 1.98648C0.20068 2.34369 0 2.82818 0 3.33335V6.19049H19.0476Z" fill="#993333"/>
</svg>
