<svg width="19" height="19" viewBox="0 0 19 19" fill="none" xmlns="http://www.w3.org/2000/svg">
<rect width="19" height="19" rx="3" fill="#993333"/>
<path fill-rule="evenodd" clip-rule="evenodd" d="M4 5.00005C4 4.61345 4.3134 4.30005 4.7 4.30005H9.7C10.0866 4.30005 10.4 4.61345 10.4 5.00005C10.4 5.38665 10.0866 5.70005 9.7 5.70005H4.7C4.3134 5.70005 4 5.38665 4 5.00005Z" fill="white"/>
<path fill-rule="evenodd" clip-rule="evenodd" d="M4 9.00005C4 8.61345 4.3134 8.30005 4.7 8.30005H15.7C16.0866 8.30005 16.4 8.61345 16.4 9.00005C16.4 9.38665 16.0866 9.70005 15.7 9.70005H4.7C4.3134 9.70005 4 9.38665 4 9.00005Z" fill="white"/>
<path fill-rule="evenodd" clip-rule="evenodd" d="M4 13C4 12.6134 4.3134 12.3 4.7 12.3H13.7C14.0866 12.3 14.4 12.6134 14.4 13C14.4 13.3866 14.0866 13.7 13.7 13.7H4.7C4.3134 13.7 4 13.3866 4 13Z" fill="white"/>
</svg>
