<svg width="19" height="19" viewBox="0 0 19 19" fill="none" xmlns="http://www.w3.org/2000/svg">
<path d="M9.5 3.05176e-05C7.62108 3.05176e-05 5.78435 0.557196 4.22209 1.60107C2.65982 2.64494 1.44218 4.12864 0.723149 5.86454C0.00411623 7.60043 -0.184015 9.51057 0.182544 11.3534C0.549104 13.1962 1.45389 14.8889 2.78249 16.2175C4.11109 17.5461 5.80383 18.4509 7.64665 18.8175C9.48946 19.184 11.3996 18.9959 13.1355 18.2769C14.8714 17.5578 16.3551 16.3402 17.399 14.7779C18.4428 13.2157 19 11.379 19 9.50003C18.997 6.98138 17.9952 4.56675 16.2142 2.7858C14.4333 1.00485 12.0186 0.00300183 9.5 3.05176e-05ZM12.7015 12.7015C12.5395 12.8634 12.3199 12.9544 12.0909 12.9544C11.8619 12.9544 11.6423 12.8634 11.4803 12.7015L8.88941 10.1106C8.72744 9.94869 8.63642 9.72906 8.63637 9.50003V4.31821C8.63637 4.08916 8.72736 3.86949 8.88932 3.70753C9.05128 3.54557 9.27095 3.45458 9.5 3.45458C9.72905 3.45458 9.94872 3.54557 10.1107 3.70753C10.2726 3.86949 10.3636 4.08916 10.3636 4.31821V9.14248L12.7015 11.4803C12.8634 11.6423 12.9544 11.8619 12.9544 12.0909C12.9544 12.3199 12.8634 12.5396 12.7015 12.7015Z" fill="#993333"/>
</svg>
