<svg width="32" height="39" viewBox="0 0 32 39" fill="none" xmlns="http://www.w3.org/2000/svg">
<path fill-rule="evenodd" clip-rule="evenodd" d="M15.5442 0C12.9804 0 10.5217 1.01845 8.70881 2.8313C6.89596 4.64416 5.87751 7.10291 5.87751 9.66667C5.87751 12.2304 6.89596 14.6892 8.70881 16.502C10.5217 18.3149 12.9804 19.3333 15.5442 19.3333C18.1079 19.3333 20.5667 18.3149 22.3796 16.502C24.1924 14.6892 25.2109 12.2304 25.2109 9.66667C25.2109 7.10291 24.1924 4.64416 22.3796 2.8313C20.5667 1.01845 18.1079 0 15.5442 0ZM9.74418 21.2667C6.52905 21.2667 3.43764 22.7321 1.62611 24.94C0.707776 26.0613 0.0601091 27.4475 0.00404238 28.9846C-0.0539576 30.5544 0.512509 32.0856 1.68218 33.4216C4.52804 36.6792 9.07331 38.6667 15.5442 38.6667C22.0151 38.6667 26.5603 36.6792 29.4062 33.4216C30.5759 32.0856 31.1423 30.5544 31.0843 28.9846C31.0263 27.4475 30.3825 26.0613 29.4603 24.94C27.6527 22.736 24.5613 21.2667 21.3442 21.2667H9.74418Z" fill="#993333"/>
</svg>
