<svg width="44" height="20" viewBox="0 0 44 20" fill="none" xmlns="http://www.w3.org/2000/svg">
<path d="M3.68521 14.6665C4.04459 15.1604 4.51581 15.5623 5.0603 15.8391C5.6048 16.1159 6.2071 16.2599 6.81793 16.2593C7.11712 16.2593 7.43392 16.2241 7.73311 16.1537C10.813 15.4057 16.5505 13.9801 22.112 12.4402L19.4456 18.732C19.3224 19.0048 19.3576 19.3128 19.516 19.5592C19.6832 19.8056 19.956 19.9552 20.2552 19.9552C22.464 19.9552 24.5583 18.9784 25.9751 17.2713C27.7526 15.1505 29.9878 12.185 30.9382 9.80904C31.5013 9.61544 32.0381 9.43065 32.5397 9.25465C37.9692 7.3011 41.2427 5.99873 43.0027 4.69636C43.8298 4.07158 44.1818 3.0332 43.909 2.04762C43.7744 1.56893 43.4965 1.14289 43.1127 0.82672C42.7289 0.510546 42.2575 0.319371 41.7619 0.278865L38.858 0.0236722C37.8108 -0.0643257 36.746 0.0940692 35.778 0.48126L24.8311 4.83716C21.8128 3.89558 16.8761 3.27079 14.1394 2.9804C12.4586 2.7956 10.8218 3.39399 9.65146 4.60836C9.44027 4.81956 9.35227 5.12755 9.42267 5.41794C9.49307 5.70834 9.70426 5.94593 9.98586 6.05153L16.2689 8.25148L9.11468 11.0938L3.738 7.77629C3.62904 7.70746 3.50576 7.66454 3.37761 7.65081C3.24947 7.63708 3.11989 7.65291 2.99882 7.69709L0.596479 8.50667C0.332485 8.59467 0.12129 8.80586 0.0420924 9.07866C-0.0459055 9.34265 0.00689288 9.63304 0.174089 9.86184L3.68521 14.6665Z" fill="#993333"/>
</svg>
